<svg width="100" height="91" viewBox="0 0 100 91" fill="none" xmlns="http://www.w3.org/2000/svg">
<rect width="100" height="91" rx="45.5" fill="#9CA3AF"/>
<path d="M26.5345 38.5312C25.0432 38.5312 23.5875 38.973 22.3481 39.8004C21.1073 40.63 20.1413 41.8071 19.5722 43.1829C19.0029 44.5596 18.8542 46.0729 19.145 47.5333C19.4357 48.9937 20.1528 50.3363 21.2065 51.3929C22.2586 52.4443 23.6007 53.1609 25.0626 53.4518C26.5245 53.7427 28.0403 53.5949 29.4176 53.027C30.796 52.4552 31.9729 51.4891 32.7991 50.2511C33.7666 48.8007 34.2014 47.0624 34.0301 45.3298C33.8587 43.5973 33.0918 41.9767 31.8588 40.7419C31.1609 40.0432 30.3314 39.4883 29.4178 39.109C28.5042 38.7297 27.5244 38.5333 26.5345 38.5312V38.5312Z" fill="#4F46E5"/>
<path d="M45.8129 66.416C45.8401 67.4214 45.6656 68.4222 45.2998 69.3597C44.9339 70.2972 44.384 71.1528 43.6821 71.8763C42.9807 72.5966 42.1413 73.1695 41.2135 73.5611C40.2858 73.9527 39.2885 74.1551 38.2807 74.1563C37.2727 74.1566 36.275 73.9549 35.347 73.5632C34.419 73.1715 33.5798 72.5978 32.8794 71.8763C32.1762 71.1537 31.6254 70.2983 31.2594 69.3606C30.8935 68.4228 30.7198 67.4216 30.7486 66.416C30.7655 65.1095 31.1247 63.8291 31.7961 62.7079C32.4656 61.5847 33.4191 60.66 34.5607 60.0255C34.5156 60.2295 34.73 59.9225 34.5607 60.0255L38.0588 56.9331C40.8317 53.9957 42.3805 50.1199 42.3919 46.0894C42.3919 40.6123 39.174 35.0434 34.5494 32.1308C34.7262 32.2337 34.4817 31.9548 34.5494 32.1308C33.4073 31.4944 32.4542 30.5691 31.7867 29.4484C31.1169 28.3258 30.7556 27.0476 30.7391 25.7421C30.7116 24.7363 30.8859 23.7353 31.2518 22.7974C31.6176 21.8595 32.1678 21.0037 32.87 20.2799C33.5711 19.5599 34.4102 18.9871 35.3376 18.5955C36.2651 18.2039 37.262 18.0014 38.2694 18C39.2775 17.9995 40.2752 18.2011 41.2033 18.5928C42.1313 18.9845 42.9705 19.5583 43.6708 20.2799C44.3742 21.0024 44.9252 21.8577 45.2912 22.7955C45.6571 23.7333 45.8307 24.7346 45.8016 25.7402C45.8212 29.8061 47.4001 33.711 50.2156 36.657L51.7521 38.1545C52.3652 38.688 53.0084 39.1859 53.6779 39.6482C54.8458 40.266 55.8257 41.1944 56.5065 42.3269C57.0162 43.1747 57.3477 44.1166 57.4811 45.0956C57.6145 46.0747 57.5469 47.0705 57.2825 48.0227C57.018 48.975 56.5623 49.864 55.9427 50.6359C55.3231 51.4078 54.5527 52.0466 53.6779 52.5136C53.74 52.3882 53.5595 52.581 53.6779 52.5136C51.3155 54 49.3612 56.0474 47.9907 58.4718C46.6169 60.9003 45.8687 63.6296 45.8129 66.416V66.416ZM54.244 25.7177C54.244 27.2078 54.686 28.6659 55.5154 29.9051C56.3418 31.1426 57.5187 32.108 58.8969 32.6792C60.2737 33.2499 61.7902 33.3992 63.2527 33.1081C64.7152 32.8171 66.0574 32.0988 67.1079 31.0451C68.1617 29.9885 68.8788 28.6459 69.1695 27.1855C69.4603 25.7251 69.3116 24.2118 68.7423 22.8351C68.173 21.4599 67.207 20.2835 65.9664 19.4544C64.518 18.4872 62.7766 18.0518 61.0409 18.2229C59.3052 18.394 57.6834 19.161 56.4538 20.3923C55.0397 21.8074 54.2453 23.7218 54.244 25.7177V25.7177ZM61.78 58.8818C60.2904 58.8818 58.8329 59.3235 57.5935 60.1509C56.353 60.98 55.387 62.1564 54.8176 63.5315C54.2479 64.9084 54.099 66.4221 54.3898 67.8829C54.6805 69.3437 55.3978 70.6866 56.452 71.7434C57.5025 72.7971 58.8447 73.5154 60.3072 73.8064C61.7697 74.0975 63.2862 73.9482 64.6631 73.3776C66.0424 72.8057 67.22 71.8388 68.0464 70.5997C69.0145 69.1489 69.4497 67.4099 69.2783 65.6766C69.107 63.9433 68.3397 62.322 67.1061 61.0868C66.408 60.3879 65.5782 59.833 64.6642 59.454C63.7503 59.0749 62.7701 58.8792 61.78 58.878V58.8818ZM81.0608 46.0669C81.0608 44.5769 80.6188 43.1206 79.7913 41.8814C78.9652 40.6432 77.7883 39.6771 76.4098 39.1054C75.0327 38.5344 73.5159 38.3848 72.053 38.6759C70.5901 38.967 69.2476 39.6854 68.1969 40.7395C67.1427 41.7963 66.4254 43.1393 66.1347 44.6C65.8439 46.0608 65.9928 47.5745 66.5626 48.9515C67.1319 50.3266 68.0978 51.503 69.3384 52.3321C70.5764 53.1594 72.0337 53.6012 73.5249 53.6012C74.515 53.5997 75.495 53.4038 76.409 53.0248C77.3229 52.6458 78.1527 52.0911 78.851 51.3924C80.2652 49.9765 81.0596 48.0615 81.0608 46.065V46.0669Z" fill="#4F46E5"/>
</svg>
